<svg xmlns="http://www.w3.org/2000/svg" xmlns:xlink="http://www.w3.org/1999/xlink" width="875" height="252" viewBox="0 0 875 252">
    <defs>
        <path id="a" d="M.256.044h77.048v76.06H.256z"/>
        <path id="c" d="M0 .026h82.6v206.856H0z"/>
        <path id="e" d="M0 0h126v26H0z"/>
        <path id="g" d="M0 0h126v26H0z"/>
        <path id="i" d="M0 0h126v26H0z"/>
        <path id="k" d="M0 0h115.73v26.988H0z"/>
        <path id="m" d="M0 0h115.73v26.988H0z"/>
        <path id="o" d="M.001.225h127.76V44H.002z"/>
    </defs>
    <g fill="none" fill-rule="evenodd">
        <path fill="#325F74" d="M428.667 149.993c-22.733.002-45.465.012-68.197-.004-8.033-.007-10.462-2.728-10.464-11.658-.007-30.365-.01-60.729.002-91.092.002-7.917 2.69-11.179 9.81-11.189 46.114-.068 92.229-.065 138.344-.001 6.968.009 9.82 3.463 9.825 11.312.016 30.509.02 61.018-.003 91.527-.006 7.846-2.884 11.078-9.95 11.09-23.122.039-46.244.014-69.367.015"/>
        <path fill="#FFF" d="M429.216 140.994c-19.424.002-38.847.01-58.27-.004-6.863-.005-8.94-2.32-8.941-9.919-.006-25.837-.008-51.672.002-77.508.002-6.736 2.299-9.512 8.382-9.52 39.401-.058 78.803-.056 118.205-.001 5.954.007 8.39 2.946 8.394 9.625.015 25.959.018 51.919-.001 77.878-.006 6.676-2.465 9.426-8.502 9.436-19.756.033-39.512.012-59.27.013"/>
        <path fill="#325F74" d="M428.97 195.978c-32.444 0-64.888-.017-97.33.022-3.533.003-6.761-.375-8.773-3.777-1.089-1.84-1.28-3.541.173-5.37a5623.299 5623.299 0 0 0 26.77-33.904c1.646-2.102 3.794-1.901 5.988-1.901h91.1c18.687 0 37.374.045 56.06-.048 2.853-.014 4.796.816 6.587 3.134 8.172 10.57 16.542 20.988 24.808 31.486 3.398 4.315 1.31 9.439-4.17 10.215-1.53.215-3.108.138-4.664.138-32.183.007-64.367.006-96.55.005"/>
        <path fill="#FFF" d="M392 188c0-19.882 16.118-36 36-36s36 16.118 36 36c0 19.883-16.118 36-36 36s-36-16.117-36-36"/>
        <g transform="translate(389 151)">
            <mask id="b" fill="#fff">
                <use xlink:href="#a"/>
            </mask>
            <path fill="#325F74" d="M38.78 5.288c-18.313 0-33.212 14.708-33.212 32.786 0 18.079 14.899 32.787 33.212 32.787 18.314 0 33.213-14.708 33.213-32.787 0-18.078-14.9-32.786-33.213-32.786m0 70.817C17.54 76.105.256 59.044.256 38.075.256 17.104 17.54.044 38.78.044c21.242 0 38.524 17.06 38.524 38.03 0 20.969-17.282 38.03-38.524 38.03" mask="url(#b)"/>
        </g>
        <g fill="#325F74">
            <path d="M428.03 161c8.485.017 15.823 2.904 21.86 8.897 2.456 2.439 4.362 5.305 5.768 8.485.675 1.527.24 2.866-1.111 3.486-1.286.59-2.62.049-3.304-1.402-3.848-8.158-10.292-12.905-19.139-14.283-11.172-1.742-22.404 3.346-27.359 14.259-.621 1.37-1.942 1.988-3.192 1.492-1.347-.535-1.927-1.873-1.301-3.336 1.671-3.912 4.087-7.325 7.323-10.089 6.054-5.172 12.538-7.503 20.455-7.509"/>
            <path d="M439.686 200.052c0 3.143.002 6.289-.001 9.432-.002 1.788-.893 2.806-2.427 2.79-1.513-.016-2.41-1.06-2.413-2.838-.006-6.025.02-12.051-.012-18.076-.016-2.843-1.324-5.01-3.889-6.215-2.502-1.175-4.993-.926-7.216.79-1.522 1.174-2.365 2.77-2.538 4.7-.009.097-.009.196-.014.294-.11 1.812-1.24 2.968-2.726 2.791-1.514-.18-2.41-1.521-2.185-3.27.72-5.582 4.134-9.494 9.277-10.63 7.187-1.587 14.113 3.94 14.142 11.292.011 2.98.002 5.96.002 8.94"/>
            <path d="M427.922 170.288c10.576-.042 19.535 7.76 20.942 18.232.1.744.17 1.498.191 2.247.05 1.735-.976 2.957-2.448 2.972-1.436.013-2.458-1.117-2.496-2.833-.092-4.109-1.56-7.654-4.349-10.651-4.725-5.076-12.104-6.534-18.478-3.67-1.582.71-2.91.407-3.591-.819-.694-1.246-.275-2.659 1.138-3.385 2.566-1.321 5.326-1.962 8.207-2.091.295-.013.59-.002.884-.002M425.591 202.887c0-3.764-.004-7.53.002-11.294.002-1.667.952-2.706 2.436-2.693 1.425.013 2.398 1.06 2.4 2.66.01 7.562.009 15.123.001 22.687-.002 1.634-1.019 2.727-2.466 2.704-1.432-.02-2.369-1.063-2.37-2.67-.007-3.799-.003-7.597-.003-11.394M406.943 195.797c.11-2.533-.245-5.55.372-8.532.523-2.528 1.503-4.869 2.806-7.076.693-1.176 2.096-1.532 3.24-.915 1.224.662 1.689 1.999 1.009 3.263-.996 1.85-1.915 3.72-2.273 5.815a20.037 20.037 0 0 0-.305 3.314c-.01 3.63 0 7.26-.006 10.89-.002 1.697-.917 2.774-2.35 2.79-1.451.016-2.48-1.128-2.49-2.806-.012-2.092-.003-4.185-.003-6.743M421.168 205.221c0 1.437.018 2.875-.004 4.31-.026 1.672-.973 2.722-2.431 2.743-1.508.021-2.503-1.034-2.515-2.754-.024-2.875-.024-5.75 0-8.622.014-1.617 1.052-2.717 2.479-2.714 1.425.005 2.441 1.107 2.467 2.726.022 1.437.004 2.874.004 4.311M444.11 202.929c0-.72-.023-1.44.005-2.158.06-1.5 1.057-2.554 2.413-2.584 1.37-.031 2.434.953 2.507 2.472.074 1.5.07 3.008.006 4.51-.064 1.5-1.156 2.536-2.496 2.506-1.354-.031-2.349-1.074-2.424-2.59-.036-.717-.007-1.436-.007-2.156h-.004z"/>
        </g>
        <path fill="#FFF" d="M86.034 132c-11.598.018-21.016-9.368-21.034-20.967C64.982 99.436 74.368 90.018 85.966 90c11.6-.018 21.016 9.37 21.034 20.966.02 11.598-9.368 21.014-20.966 21.034"/>
        <path fill="#FFF" d="M85.434 56.33c-5.226.008-9.468-4.248-9.477-9.506-.008-5.258 4.222-9.527 9.446-9.535 5.225-.009 9.468 4.247 9.477 9.505.007 5.259-4.221 9.527-9.446 9.536zm40.338-27.275c-.004-2.535-2.07-4.96-4.588-4.956L48.572 24c-2.518.004-4.577 2.083-4.572 4.616l.229 143.922c.003 2.536 2.068 4.182 4.588 4.177l8.415-.014.068 48.138c.004 2.547 2.058 6.165 4.588 6.161l45.755-.08c2.53-.003 4.577-3.628 4.573-6.172l-.067-48.14 9.111.057c2.52-.003 4.745-2.15 4.74-4.686l-.228-142.924z"/>
        <g transform="translate(44 24)">
            <mask id="d" fill="#fff">
                <use xlink:href="#c"/>
            </mask>
            <path fill="#325F74" d="M41.756 107.88c-11.678.018-21.161-9.418-21.18-21.078-.019-11.658 9.434-21.125 21.112-21.143 11.68-.019 21.161 9.418 21.18 21.075.02 11.66-9.434 21.125-21.112 21.145zm10.593 93.777h9.18V163.85h-9.18v37.807zm-10.231-4.466h9.18v-33.34h-9.18v33.34zm-10.233 0h9.18v-33.34h-9.18v33.34zm-10.424 4.466h9.18V163.85h-9.18v37.807zM41.706 13.306c5.264-.007 9.538 4.244 9.547 9.499.007 5.255-4.252 9.52-9.516 9.529-5.263.008-9.536-4.245-9.546-9.5-.007-5.254 4.252-9.52 9.515-9.528zm40.665-8.228C82.366 2.544 80.287.12 77.748.125L4.607.026C2.068.03-.004 2.108 0 4.642L.23 148.46c.005 2.534 2.085 4.179 4.622 4.174l8.477-.014.068 48.105c.005 2.545 2.074 6.16 4.622 6.156l46.09-.08c2.55-.003 4.61-3.624 4.607-6.168l-.068-48.106 9.178.057c2.539-.003 4.78-2.149 4.775-4.682L82.37 5.078z" mask="url(#d)"/>
        </g>
        <path fill="#325F74" fill-rule="nonzero" d="M.98.576h8.544v2.112H3.492v2.448h5.536v1.952H3.492v2.8h6.16V12H.98V.576zm12.24 7.072l-2.72-3.92h2.592l1.456 2.16 1.44-2.16H18.5L15.78 7.6l3.056 4.4h-2.592l-1.728-2.608L12.788 12h-2.544l2.976-4.352zm9.36-3.92h1.664v1.52H22.58v4.096c0 .384.064.64.192.768s.384.192.768.192c.128 0 .25-.005.368-.016.117-.01.23-.027.336-.048V12a5.406 5.406 0 0 1-.64.064c-.235.01-.464.016-.688.016-.352 0-.685-.024-1-.072a2.358 2.358 0 0 1-.832-.28 1.482 1.482 0 0 1-.568-.592c-.139-.256-.208-.592-.208-1.008v-4.88h-1.376v-1.52h1.376v-2.48h2.272v2.48zm8.32 3.248c-.107-.576-.296-1.013-.568-1.312-.272-.299-.685-.448-1.24-.448-.363 0-.664.061-.904.184s-.432.275-.576.456a1.67 1.67 0 0 0-.304.576 2.608 2.608 0 0 0-.104.544H30.9zm-3.696 1.44c.032.736.219 1.27.56 1.6.341.33.832.496 1.472.496.459 0 .853-.115 1.184-.344.33-.23.533-.472.608-.728h2c-.32.992-.81 1.701-1.472 2.128-.661.427-1.461.64-2.4.64-.65 0-1.237-.104-1.76-.312a3.66 3.66 0 0 1-1.328-.888 3.997 3.997 0 0 1-.84-1.376 5.037 5.037 0 0 1-.296-1.76c0-.619.101-1.195.304-1.728.203-.533.49-.995.864-1.384.373-.39.819-.696 1.336-.92a4.284 4.284 0 0 1 1.72-.336c.704 0 1.317.136 1.84.408.523.272.952.637 1.288 1.096.336.459.579.981.728 1.568.15.587.203 1.2.16 1.84h-5.968zm7.312-4.688h2.16v1.536h.032a2.83 2.83 0 0 1 1.056-1.272c.235-.155.485-.275.752-.36.267-.085.544-.128.832-.128.15 0 .315.027.496.08v2.112a4.364 4.364 0 0 0-.816-.08c-.416 0-.768.07-1.056.208-.288.139-.52.328-.696.568-.176.24-.301.52-.376.84-.075.32-.112.667-.112 1.04V12h-2.272V3.728zm6.224 0h2.16V4.88h.048c.288-.48.661-.83 1.12-1.048a3.239 3.239 0 0 1 1.408-.328c.608 0 1.107.083 1.496.248.39.165.696.395.92.688.224.293.381.65.472 1.072.09.421.136.888.136 1.4V12h-2.272V7.328c0-.683-.107-1.192-.32-1.528-.213-.336-.592-.504-1.136-.504-.619 0-1.067.184-1.344.552-.277.368-.416.973-.416 1.816V12H40.74V3.728zm9.392 2.544c.032-.533.165-.976.4-1.328.235-.352.533-.635.896-.848.363-.213.77-.365 1.224-.456.453-.09.91-.136 1.368-.136.416 0 .837.03 1.264.088.427.059.816.173 1.168.344.352.17.64.408.864.712.224.304.336.707.336 1.208v4.304c0 .373.021.73.064 1.072.043.341.117.597.224.768h-2.304a3.26 3.26 0 0 1-.16-.8 2.96 2.96 0 0 1-1.28.784c-.49.15-.992.224-1.504.224-.395 0-.763-.048-1.104-.144a2.528 2.528 0 0 1-.896-.448 2.085 2.085 0 0 1-.6-.768c-.144-.31-.216-.677-.216-1.104 0-.47.083-.856.248-1.16.165-.304.379-.547.64-.728.261-.181.56-.317.896-.408.336-.09.675-.163 1.016-.216.341-.053.677-.096 1.008-.128.33-.032.624-.08.88-.144.256-.064.459-.157.608-.28.15-.123.219-.301.208-.536 0-.245-.04-.44-.12-.584a.882.882 0 0 0-.32-.336 1.259 1.259 0 0 0-.464-.16 3.797 3.797 0 0 0-.568-.04c-.448 0-.8.096-1.056.288-.256.192-.405.512-.448.96h-2.272zm5.248 1.68a1.02 1.02 0 0 1-.36.2 3.677 3.677 0 0 1-.464.12 7.11 7.11 0 0 1-.52.08 9.552 9.552 0 0 0-.544.08c-.17.032-.339.075-.504.128a1.49 1.49 0 0 0-.432.216c-.123.09-.221.205-.296.344a1.107 1.107 0 0 0-.112.528c0 .203.037.373.112.512a.859.859 0 0 0 .304.328c.128.08.277.136.448.168.17.032.347.048.528.048.448 0 .795-.075 1.04-.224.245-.15.427-.328.544-.536.117-.208.19-.419.216-.632.027-.213.04-.384.04-.512v-.848zM59.476.576h2.272V12h-2.272V.576zm11.632 7.008h2.96l-1.44-4.192h-.032l-1.488 4.192zm.24-7.008h2.576L78.196 12h-2.608l-.864-2.544h-4.272L69.556 12h-2.528L71.348.576zM86.708 12h-2.16v-1.152H84.5c-.288.48-.661.827-1.12 1.04-.459.213-.928.32-1.408.32-.608 0-1.107-.08-1.496-.24a2.159 2.159 0 0 1-.92-.68 2.663 2.663 0 0 1-.472-1.072 6.667 6.667 0 0 1-.136-1.4V3.728h2.272V8.4c0 .683.107 1.192.32 1.528.213.336.592.504 1.136.504.619 0 1.067-.184 1.344-.552.277-.368.416-.973.416-1.816V3.728h2.272V12zm4.608-8.272h1.664v1.52h-1.664v4.096c0 .384.064.64.192.768s.384.192.768.192c.128 0 .25-.005.368-.016.117-.01.23-.027.336-.048V12a5.406 5.406 0 0 1-.64.064c-.235.01-.464.016-.688.016-.352 0-.685-.024-1-.072a2.358 2.358 0 0 1-.832-.28 1.482 1.482 0 0 1-.568-.592c-.139-.256-.208-.592-.208-1.008v-4.88h-1.376v-1.52h1.376v-2.48h2.272v2.48zM94.068.576h2.272V4.88h.048c.288-.48.656-.83 1.104-1.048.448-.219.885-.328 1.312-.328.608 0 1.107.083 1.496.248.39.165.696.395.92.688.224.293.381.65.472 1.072.09.421.136.888.136 1.4V12h-2.272V7.328c0-.683-.107-1.192-.32-1.528-.213-.336-.592-.504-1.136-.504-.619 0-1.067.184-1.344.552-.277.368-.416.973-.416 1.816V12h-2.272V.576zm15.056 6.4c-.107-.576-.296-1.013-.568-1.312-.272-.299-.685-.448-1.24-.448-.363 0-.664.061-.904.184s-.432.275-.576.456a1.67 1.67 0 0 0-.304.576 2.608 2.608 0 0 0-.104.544h3.696zm-3.696 1.44c.032.736.219 1.27.56 1.6.341.33.832.496 1.472.496.459 0 .853-.115 1.184-.344.33-.23.533-.472.608-.728h2c-.32.992-.81 1.701-1.472 2.128-.661.427-1.461.64-2.4.64-.65 0-1.237-.104-1.76-.312a3.66 3.66 0 0 1-1.328-.888 3.997 3.997 0 0 1-.84-1.376 5.037 5.037 0 0 1-.296-1.76c0-.619.101-1.195.304-1.728.203-.533.49-.995.864-1.384.373-.39.819-.696 1.336-.92a4.284 4.284 0 0 1 1.72-.336c.704 0 1.317.136 1.84.408.523.272.952.637 1.288 1.096.336.459.579.981.728 1.568.15.587.203 1.2.16 1.84h-5.968zm7.312-4.688h2.16V4.88h.048c.288-.48.661-.83 1.12-1.048a3.239 3.239 0 0 1 1.408-.328c.608 0 1.107.083 1.496.248.39.165.696.395.92.688.224.293.381.65.472 1.072.09.421.136.888.136 1.4V12h-2.272V7.328c0-.683-.107-1.192-.32-1.528-.213-.336-.592-.504-1.136-.504-.619 0-1.067.184-1.344.552-.277.368-.416.973-.416 1.816V12h-2.272V3.728zm12.368 0h1.664v1.52h-1.664v4.096c0 .384.064.64.192.768s.384.192.768.192c.128 0 .25-.005.368-.016.117-.01.23-.027.336-.048V12a5.406 5.406 0 0 1-.64.064c-.235.01-.464.016-.688.016-.352 0-.685-.024-1-.072a2.358 2.358 0 0 1-.832-.28 1.482 1.482 0 0 1-.568-.592c-.139-.256-.208-.592-.208-1.008v-4.88h-1.376v-1.52h1.376v-2.48h2.272v2.48zm5.088-1.28h-2.272V.576h2.272v1.872zm-2.272 1.28h2.272V12h-2.272V3.728zm9.696 2.912c-.15-.95-.71-1.424-1.68-1.424-.363 0-.667.083-.912.248a1.97 1.97 0 0 0-.6.64c-.155.261-.264.55-.328.864a4.494 4.494 0 0 0 0 1.848c.064.31.168.59.312.84s.339.456.584.616c.245.16.544.24.896.24.544 0 .963-.152 1.256-.456.293-.304.477-.712.552-1.224h2.192c-.15 1.099-.576 1.936-1.28 2.512-.704.576-1.605.864-2.704.864a4.527 4.527 0 0 1-1.704-.312 3.778 3.778 0 0 1-1.32-.872 3.971 3.971 0 0 1-.848-1.336 4.633 4.633 0 0 1-.304-1.704c0-.64.093-1.235.28-1.784.187-.55.461-1.024.824-1.424.363-.4.805-.712 1.328-.936.523-.224 1.12-.336 1.792-.336.49 0 .963.064 1.416.192a3.78 3.78 0 0 1 1.216.584c.357.261.648.587.872.976.224.39.352.85.384 1.384h-2.224zm3.456-.368c.032-.533.165-.976.4-1.328.235-.352.533-.635.896-.848.363-.213.77-.365 1.224-.456.453-.09.91-.136 1.368-.136.416 0 .837.03 1.264.088.427.059.816.173 1.168.344.352.17.64.408.864.712.224.304.336.707.336 1.208v4.304c0 .373.021.73.064 1.072.043.341.117.597.224.768h-2.304a3.26 3.26 0 0 1-.16-.8 2.96 2.96 0 0 1-1.28.784c-.49.15-.992.224-1.504.224-.395 0-.763-.048-1.104-.144a2.528 2.528 0 0 1-.896-.448 2.085 2.085 0 0 1-.6-.768c-.144-.31-.216-.677-.216-1.104 0-.47.083-.856.248-1.16.165-.304.379-.547.64-.728.261-.181.56-.317.896-.408.336-.09.675-.163 1.016-.216.341-.053.677-.096 1.008-.128.33-.032.624-.08.88-.144.256-.064.459-.157.608-.28.15-.123.219-.301.208-.536 0-.245-.04-.44-.12-.584a.882.882 0 0 0-.32-.336 1.259 1.259 0 0 0-.464-.16 3.797 3.797 0 0 0-.568-.04c-.448 0-.8.096-1.056.288-.256.192-.405.512-.448.96h-2.272zm5.248 1.68a1.02 1.02 0 0 1-.36.2 3.677 3.677 0 0 1-.464.12 7.11 7.11 0 0 1-.52.08 9.552 9.552 0 0 0-.544.08c-.17.032-.339.075-.504.128a1.49 1.49 0 0 0-.432.216c-.123.09-.221.205-.296.344a1.107 1.107 0 0 0-.112.528c0 .203.037.373.112.512a.859.859 0 0 0 .304.328c.128.08.277.136.448.168.17.032.347.048.528.048.448 0 .795-.075 1.04-.224.245-.15.427-.328.544-.536.117-.208.19-.419.216-.632.027-.213.04-.384.04-.512v-.848zm6.912-4.224h1.664v1.52h-1.664v4.096c0 .384.064.64.192.768s.384.192.768.192c.128 0 .25-.005.368-.016.117-.01.23-.027.336-.048V12a5.406 5.406 0 0 1-.64.064c-.235.01-.464.016-.688.016-.352 0-.685-.024-1-.072a2.358 2.358 0 0 1-.832-.28 1.482 1.482 0 0 1-.568-.592c-.139-.256-.208-.592-.208-1.008v-4.88h-1.376v-1.52h1.376v-2.48h2.272v2.48zm4.768 4.144c0 .33.032.653.096.968.064.315.173.597.328.848.155.25.36.45.616.6.256.15.576.224.96.224s.707-.075.968-.224c.261-.15.47-.35.624-.6.155-.25.264-.533.328-.848a4.964 4.964 0 0 0 0-1.944 2.49 2.49 0 0 0-.328-.848 1.82 1.82 0 0 0-.624-.6c-.261-.155-.584-.232-.968-.232s-.704.077-.96.232a1.842 1.842 0 0 0-.616.6 2.49 2.49 0 0 0-.328.848c-.064.32-.096.645-.096.976zm-2.272 0c0-.661.101-1.261.304-1.8.203-.539.49-.997.864-1.376a3.872 3.872 0 0 1 1.344-.88c.523-.208 1.11-.312 1.76-.312.65 0 1.24.104 1.768.312.528.208.979.501 1.352.88.373.379.661.837.864 1.376.203.539.304 1.139.304 1.8s-.101 1.259-.304 1.792c-.203.533-.49.99-.864 1.368-.373.379-.824.67-1.352.872a4.9 4.9 0 0 1-1.768.304c-.65 0-1.237-.101-1.76-.304a3.78 3.78 0 0 1-1.344-.872 3.887 3.887 0 0 1-.864-1.368c-.203-.533-.304-1.13-.304-1.792zm10.032-4.144h2.16v1.536h.032a2.83 2.83 0 0 1 1.056-1.272c.235-.155.485-.275.752-.36.267-.085.544-.128.832-.128.15 0 .315.027.496.08v2.112a4.364 4.364 0 0 0-.816-.08c-.416 0-.768.07-1.056.208-.288.139-.52.328-.696.568-.176.24-.301.52-.376.84-.075.32-.112.667-.112 1.04V12h-2.272V3.728zM380.324 4.416a2.051 2.051 0 0 0-.288-.792c-.15-.24-.336-.45-.56-.632a2.611 2.611 0 0 0-1.648-.576c-.565 0-1.045.11-1.44.328a2.719 2.719 0 0 0-.96.88 3.856 3.856 0 0 0-.536 1.256c-.112.47-.168.955-.168 1.456 0 .48.056.947.168 1.4.112.453.29.861.536 1.224.245.363.565.653.96.872.395.219.875.328 1.44.328.768 0 1.368-.235 1.8-.704.432-.47.696-1.088.792-1.856h2.432a5.808 5.808 0 0 1-.496 1.936 4.637 4.637 0 0 1-1.056 1.472c-.437.405-.95.715-1.536.928a5.628 5.628 0 0 1-1.936.32c-.875 0-1.661-.152-2.36-.456a5.057 5.057 0 0 1-1.768-1.256 5.56 5.56 0 0 1-1.104-1.88 6.9 6.9 0 0 1-.384-2.328c0-.853.128-1.645.384-2.376a5.707 5.707 0 0 1 1.104-1.912c.48-.544 1.07-.97 1.768-1.28.699-.31 1.485-.464 2.36-.464.63 0 1.224.09 1.784.272a4.83 4.83 0 0 1 1.504.792 4.28 4.28 0 0 1 1.096 1.288c.288.512.47 1.099.544 1.76h-2.432zm4.064-3.84h2.272V12h-2.272V.576zm6.4 1.872h-2.272V.576h2.272v1.872zm-2.272 1.28h2.272V12h-2.272V3.728zm9.632 3.248c-.107-.576-.296-1.013-.568-1.312-.272-.299-.685-.448-1.24-.448-.363 0-.664.061-.904.184s-.432.275-.576.456a1.67 1.67 0 0 0-.304.576 2.608 2.608 0 0 0-.104.544h3.696zm-3.696 1.44c.032.736.219 1.27.56 1.6.341.33.832.496 1.472.496.459 0 .853-.115 1.184-.344.33-.23.533-.472.608-.728h2c-.32.992-.81 1.701-1.472 2.128-.661.427-1.461.64-2.4.64-.65 0-1.237-.104-1.76-.312a3.66 3.66 0 0 1-1.328-.888 3.997 3.997 0 0 1-.84-1.376 5.037 5.037 0 0 1-.296-1.76c0-.619.101-1.195.304-1.728.203-.533.49-.995.864-1.384.373-.39.819-.696 1.336-.92a4.284 4.284 0 0 1 1.72-.336c.704 0 1.317.136 1.84.408.523.272.952.637 1.288 1.096.336.459.579.981.728 1.568.15.587.203 1.2.16 1.84h-5.968zm7.312-4.688h2.16V4.88h.048c.288-.48.661-.83 1.12-1.048a3.239 3.239 0 0 1 1.408-.328c.608 0 1.107.083 1.496.248.39.165.696.395.92.688.224.293.381.65.472 1.072.09.421.136.888.136 1.4V12h-2.272V7.328c0-.683-.107-1.192-.32-1.528-.213-.336-.592-.504-1.136-.504-.619 0-1.067.184-1.344.552-.277.368-.416.973-.416 1.816V12h-2.272V3.728zm12.368 0h1.664v1.52h-1.664v4.096c0 .384.064.64.192.768s.384.192.768.192c.128 0 .25-.005.368-.016.117-.01.23-.027.336-.048V12a5.406 5.406 0 0 1-.64.064c-.235.01-.464.016-.688.016-.352 0-.685-.024-1-.072a2.358 2.358 0 0 1-.832-.28 1.482 1.482 0 0 1-.568-.592c-.139-.256-.208-.592-.208-1.008v-4.88h-1.376v-1.52h1.376v-2.48h2.272v2.48zm6.176-3.424h1.824l-4.464 11.952h-1.808L420.308.304zm5.264 5.648h1.952c.288 0 .565-.021.832-.064s.501-.125.704-.248c.203-.123.365-.296.488-.52.123-.224.184-.517.184-.88s-.061-.656-.184-.88a1.351 1.351 0 0 0-.488-.52 1.936 1.936 0 0 0-.704-.248 5.26 5.26 0 0 0-.832-.064h-1.952v3.424zM423.06.576h5.152c.715 0 1.323.104 1.824.312.501.208.91.483 1.224.824.315.341.544.73.688 1.168a4.345 4.345 0 0 1 0 2.712 3.155 3.155 0 0 1-.688 1.176c-.315.341-.723.616-1.224.824-.501.208-1.11.312-1.824.312h-2.64V12h-2.512V.576zm10.496 0h2.272V12h-2.272V.576zm3.968 5.696c.032-.533.165-.976.4-1.328.235-.352.533-.635.896-.848.363-.213.77-.365 1.224-.456.453-.09.91-.136 1.368-.136.416 0 .837.03 1.264.088.427.059.816.173 1.168.344.352.17.64.408.864.712.224.304.336.707.336 1.208v4.304c0 .373.021.73.064 1.072.043.341.117.597.224.768h-2.304a3.26 3.26 0 0 1-.16-.8 2.96 2.96 0 0 1-1.28.784c-.49.15-.992.224-1.504.224-.395 0-.763-.048-1.104-.144a2.528 2.528 0 0 1-.896-.448 2.085 2.085 0 0 1-.6-.768c-.144-.31-.216-.677-.216-1.104 0-.47.083-.856.248-1.16.165-.304.379-.547.64-.728.261-.181.56-.317.896-.408.336-.09.675-.163 1.016-.216.341-.053.677-.096 1.008-.128.33-.032.624-.08.88-.144.256-.064.459-.157.608-.28.15-.123.219-.301.208-.536 0-.245-.04-.44-.12-.584a.882.882 0 0 0-.32-.336 1.259 1.259 0 0 0-.464-.16 3.797 3.797 0 0 0-.568-.04c-.448 0-.8.096-1.056.288-.256.192-.405.512-.448.96h-2.272zm5.248 1.68a1.02 1.02 0 0 1-.36.2 3.677 3.677 0 0 1-.464.12 7.11 7.11 0 0 1-.52.08 9.552 9.552 0 0 0-.544.08c-.17.032-.339.075-.504.128a1.49 1.49 0 0 0-.432.216c-.123.09-.221.205-.296.344a1.107 1.107 0 0 0-.112.528c0 .203.037.373.112.512a.859.859 0 0 0 .304.328c.128.08.277.136.448.168.17.032.347.048.528.048.448 0 .795-.075 1.04-.224.245-.15.427-.328.544-.536.117-.208.19-.419.216-.632.027-.213.04-.384.04-.512v-.848zm6.912-4.224h1.664v1.52h-1.664v4.096c0 .384.064.64.192.768s.384.192.768.192c.128 0 .25-.005.368-.016.117-.01.23-.027.336-.048V12a5.406 5.406 0 0 1-.64.064c-.235.01-.464.016-.688.016-.352 0-.685-.024-1-.072a2.358 2.358 0 0 1-.832-.28 1.482 1.482 0 0 1-.568-.592c-.139-.256-.208-.592-.208-1.008v-4.88h-1.376v-1.52h1.376v-2.48h2.272v2.48zm3.248 1.52h-1.36v-1.52h1.36v-.64c0-.736.23-1.339.688-1.808.459-.47 1.152-.704 2.08-.704.203 0 .405.008.608.024.203.016.4.03.592.04v1.696a6.982 6.982 0 0 0-.832-.048c-.31 0-.53.072-.664.216-.133.144-.2.387-.2.728v.496h1.568v1.52h-1.568V12h-2.272V5.248zm6.848 2.624c0 .33.032.653.096.968.064.315.173.597.328.848.155.25.36.45.616.6.256.15.576.224.96.224s.707-.075.968-.224c.261-.15.47-.35.624-.6.155-.25.264-.533.328-.848a4.964 4.964 0 0 0 0-1.944 2.49 2.49 0 0 0-.328-.848 1.82 1.82 0 0 0-.624-.6c-.261-.155-.584-.232-.968-.232s-.704.077-.96.232a1.842 1.842 0 0 0-.616.6 2.49 2.49 0 0 0-.328.848c-.064.32-.096.645-.096.976zm-2.272 0c0-.661.101-1.261.304-1.8.203-.539.49-.997.864-1.376a3.872 3.872 0 0 1 1.344-.88c.523-.208 1.11-.312 1.76-.312.65 0 1.24.104 1.768.312.528.208.979.501 1.352.88.373.379.661.837.864 1.376.203.539.304 1.139.304 1.8s-.101 1.259-.304 1.792c-.203.533-.49.99-.864 1.368-.373.379-.824.67-1.352.872a4.9 4.9 0 0 1-1.768.304c-.65 0-1.237-.101-1.76-.304a3.78 3.78 0 0 1-1.344-.872 3.887 3.887 0 0 1-.864-1.368c-.203-.533-.304-1.13-.304-1.792zm10.032-4.144h2.16v1.536h.032a2.83 2.83 0 0 1 1.056-1.272c.235-.155.485-.275.752-.36.267-.085.544-.128.832-.128.15 0 .315.027.496.08v2.112a4.364 4.364 0 0 0-.816-.08c-.416 0-.768.07-1.056.208-.288.139-.52.328-.696.568-.176.24-.301.52-.376.84-.075.32-.112.667-.112 1.04V12h-2.272V3.728zm6.288 0h2.144v1.12h.032a3.235 3.235 0 0 1 1.08-.992c.421-.235.904-.352 1.448-.352.523 0 1 .101 1.432.304.432.203.76.56.984 1.072a3.521 3.521 0 0 1 1-.96c.421-.277.92-.416 1.496-.416.437 0 .843.053 1.216.16.373.107.693.277.96.512s.475.541.624.92c.15.379.224.835.224 1.368V12h-2.272V7.312c0-.277-.01-.539-.032-.784a1.664 1.664 0 0 0-.176-.64 1.066 1.066 0 0 0-.424-.432c-.187-.107-.44-.16-.76-.16s-.579.061-.776.184a1.333 1.333 0 0 0-.464.48 1.922 1.922 0 0 0-.224.672c-.037.25-.056.504-.056.76V12h-2.272V7.36c0-.245-.005-.488-.016-.728a2.043 2.043 0 0 0-.136-.664 1.021 1.021 0 0 0-.4-.488c-.187-.123-.461-.184-.824-.184-.107 0-.248.024-.424.072a1.407 1.407 0 0 0-.512.272 1.589 1.589 0 0 0-.424.576c-.117.25-.176.579-.176.984V12h-2.272V3.728zM741.532 5.744h2.752c.576 0 1.008-.128 1.296-.384.288-.256.432-.672.432-1.248 0-.555-.144-.957-.432-1.208-.288-.25-.72-.376-1.296-.376h-2.752v3.216zM739.02.576h6.16c.512 0 .973.083 1.384.248.41.165.763.392 1.056.68.293.288.517.621.672 1 .155.379.232.787.232 1.224 0 .672-.141 1.253-.424 1.744-.283.49-.744.864-1.384 1.12v.032c.31.085.565.216.768.392.203.176.368.384.496.624s.221.504.28.792c.059.288.099.576.12.864.01.181.021.395.032.64.01.245.03.496.056.752.027.256.07.499.128.728.059.23.147.424.264.584h-2.512c-.139-.363-.224-.795-.256-1.296s-.08-.981-.144-1.44c-.085-.597-.267-1.035-.544-1.312-.277-.277-.73-.416-1.36-.416h-2.512V12h-2.512V.576zm16.88 6.4c-.107-.576-.296-1.013-.568-1.312-.272-.299-.685-.448-1.24-.448-.363 0-.664.061-.904.184s-.432.275-.576.456a1.67 1.67 0 0 0-.304.576 2.608 2.608 0 0 0-.104.544h3.696zm-3.696 1.44c.032.736.219 1.27.56 1.6.341.33.832.496 1.472.496.459 0 .853-.115 1.184-.344.33-.23.533-.472.608-.728h2c-.32.992-.81 1.701-1.472 2.128-.661.427-1.461.64-2.4.64-.65 0-1.237-.104-1.76-.312a3.66 3.66 0 0 1-1.328-.888 3.997 3.997 0 0 1-.84-1.376 5.037 5.037 0 0 1-.296-1.76c0-.619.101-1.195.304-1.728.203-.533.49-.995.864-1.384.373-.39.819-.696 1.336-.92a4.284 4.284 0 0 1 1.72-.336c.704 0 1.317.136 1.84.408.523.272.952.637 1.288 1.096.336.459.579.981.728 1.568.15.587.203 1.2.16 1.84h-5.968zm7.376-7.84h2.272V12h-2.272V.576zm8.144 12.448c-.245.672-.587 1.152-1.024 1.44-.437.288-1.045.432-1.824.432-.235 0-.467-.008-.696-.024-.23-.016-.461-.035-.696-.056v-1.872l.656.064c.224.021.448.027.672.016.299-.032.52-.15.664-.352.144-.203.216-.427.216-.672 0-.181-.032-.352-.096-.512l-2.896-7.76h2.416l1.872 5.664h.032l1.808-5.664h2.352l-3.456 9.296zm6.56-10.576h-2.272V.576h2.272v1.872zm-2.272 1.28h2.272V12h-2.272V3.728zm4.064 0h2.16V4.88h.048c.288-.48.661-.83 1.12-1.048a3.239 3.239 0 0 1 1.408-.328c.608 0 1.107.083 1.496.248.39.165.696.395.92.688.224.293.381.65.472 1.072.09.421.136.888.136 1.4V12h-2.272V7.328c0-.683-.107-1.192-.32-1.528-.213-.336-.592-.504-1.136-.504-.619 0-1.067.184-1.344.552-.277.368-.416.973-.416 1.816V12h-2.272V3.728zm13.344 6.32c.32 0 .603-.064.848-.192s.448-.299.608-.512c.16-.213.28-.456.36-.728.08-.272.12-.557.12-.856 0-.341-.032-.664-.096-.968a2.418 2.418 0 0 0-.32-.808 1.656 1.656 0 0 0-.592-.56c-.245-.139-.555-.208-.928-.208-.32 0-.595.064-.824.192-.23.128-.421.301-.576.52-.155.219-.267.47-.336.752-.07.283-.104.579-.104.888 0 .299.03.595.088.888a2.4 2.4 0 0 0 .304.792c.144.235.333.427.568.576.235.15.528.224.88.224zm4.096 1.424c0 .33-.045.71-.136 1.136-.09.427-.285.824-.584 1.192s-.73.68-1.296.936c-.565.256-1.323.384-2.272.384-.405 0-.819-.05-1.24-.152a3.94 3.94 0 0 1-1.152-.472 2.831 2.831 0 0 1-.864-.824c-.23-.336-.36-.739-.392-1.208h2.256c.107.427.315.723.624.888.31.165.667.248 1.072.248.64 0 1.107-.192 1.4-.576.293-.384.435-.87.424-1.456V10.48h-.032a2.25 2.25 0 0 1-1.048.968c-.453.208-.93.312-1.432.312-.619 0-1.152-.11-1.6-.328a3.036 3.036 0 0 1-1.104-.896 3.738 3.738 0 0 1-.632-1.328 6.295 6.295 0 0 1-.2-1.608c0-.533.077-1.048.232-1.544.155-.496.381-.933.68-1.312.299-.379.67-.68 1.112-.904.443-.224.952-.336 1.528-.336.544 0 1.021.101 1.432.304.41.203.755.544 1.032 1.024h.032V3.728h2.16v7.744zm9.024-5.52h1.952c.288 0 .565-.021.832-.064s.501-.125.704-.248c.203-.123.365-.296.488-.52.123-.224.184-.517.184-.88s-.061-.656-.184-.88a1.351 1.351 0 0 0-.488-.52 1.936 1.936 0 0 0-.704-.248 5.26 5.26 0 0 0-.832-.064h-1.952v3.424zM800.028.576h5.152c.715 0 1.323.104 1.824.312.501.208.91.483 1.224.824.315.341.544.73.688 1.168a4.345 4.345 0 0 1 0 2.712 3.155 3.155 0 0 1-.688 1.176c-.315.341-.723.616-1.224.824-.501.208-1.11.312-1.824.312h-2.64V12h-2.512V.576zm10.336 5.696c.032-.533.165-.976.4-1.328.235-.352.533-.635.896-.848.363-.213.77-.365 1.224-.456.453-.09.91-.136 1.368-.136.416 0 .837.03 1.264.088.427.059.816.173 1.168.344.352.17.64.408.864.712.224.304.336.707.336 1.208v4.304c0 .373.021.73.064 1.072.043.341.117.597.224.768h-2.304a3.26 3.26 0 0 1-.16-.8 2.96 2.96 0 0 1-1.28.784c-.49.15-.992.224-1.504.224-.395 0-.763-.048-1.104-.144a2.528 2.528 0 0 1-.896-.448 2.085 2.085 0 0 1-.6-.768c-.144-.31-.216-.677-.216-1.104 0-.47.083-.856.248-1.16.165-.304.379-.547.64-.728.261-.181.56-.317.896-.408.336-.09.675-.163 1.016-.216.341-.053.677-.096 1.008-.128.33-.032.624-.08.88-.144.256-.064.459-.157.608-.28.15-.123.219-.301.208-.536 0-.245-.04-.44-.12-.584a.882.882 0 0 0-.32-.336 1.259 1.259 0 0 0-.464-.16 3.797 3.797 0 0 0-.568-.04c-.448 0-.8.096-1.056.288-.256.192-.405.512-.448.96h-2.272zm5.248 1.68a1.02 1.02 0 0 1-.36.2 3.677 3.677 0 0 1-.464.12 7.11 7.11 0 0 1-.52.08 9.552 9.552 0 0 0-.544.08c-.17.032-.339.075-.504.128a1.49 1.49 0 0 0-.432.216c-.123.09-.221.205-.296.344a1.107 1.107 0 0 0-.112.528c0 .203.037.373.112.512a.859.859 0 0 0 .304.328c.128.08.277.136.448.168.17.032.347.048.528.048.448 0 .795-.075 1.04-.224.245-.15.427-.328.544-.536.117-.208.19-.419.216-.632.027-.213.04-.384.04-.512v-.848zm4.032-4.224h2.16v1.536h.032a2.83 2.83 0 0 1 1.056-1.272c.235-.155.485-.275.752-.36.267-.085.544-.128.832-.128.15 0 .315.027.496.08v2.112a4.364 4.364 0 0 0-.816-.08c-.416 0-.768.07-1.056.208-.288.139-.52.328-.696.568-.176.24-.301.52-.376.84-.075.32-.112.667-.112 1.04V12h-2.272V3.728zm9.104 0h1.664v1.52h-1.664v4.096c0 .384.064.64.192.768s.384.192.768.192c.128 0 .25-.005.368-.016.117-.01.23-.027.336-.048V12a5.406 5.406 0 0 1-.64.064c-.235.01-.464.016-.688.016-.352 0-.685-.024-1-.072a2.358 2.358 0 0 1-.832-.28 1.482 1.482 0 0 1-.568-.592c-.139-.256-.208-.592-.208-1.008v-4.88H825.1v-1.52h1.376v-2.48h2.272v2.48zm6.832 9.296c-.245.672-.587 1.152-1.024 1.44-.437.288-1.045.432-1.824.432-.235 0-.467-.008-.696-.024-.23-.016-.461-.035-.696-.056v-1.872l.656.064c.224.021.448.027.672.016.299-.032.52-.15.664-.352.144-.203.216-.427.216-.672 0-.181-.032-.352-.096-.512l-2.896-7.76h2.416l1.872 5.664h.032l1.808-5.664h2.352l-3.456 9.296zM848.236.304a13.938 13.938 0 0 0-1.328 3.528 16.747 16.747 0 0 0-.416 3.72c0 1.28.136 2.533.408 3.76a14.472 14.472 0 0 0 1.32 3.584h-1.888a14.903 14.903 0 0 1-1.56-3.472 12.748 12.748 0 0 1-.552-3.712c0-.597.045-1.224.136-1.88.09-.656.224-1.31.4-1.96.176-.65.395-1.28.656-1.888a9.755 9.755 0 0 1 .92-1.68h1.904zm3.504 5.44h2.752c.576 0 1.008-.128 1.296-.384.288-.256.432-.672.432-1.248 0-.555-.144-.957-.432-1.208-.288-.25-.72-.376-1.296-.376h-2.752v3.216zM849.228.576h6.16c.512 0 .973.083 1.384.248.41.165.763.392 1.056.68.293.288.517.621.672 1 .155.379.232.787.232 1.224 0 .672-.141 1.253-.424 1.744-.283.49-.744.864-1.384 1.12v.032c.31.085.565.216.768.392.203.176.368.384.496.624s.221.504.28.792c.059.288.099.576.12.864.01.181.021.395.032.64.01.245.03.496.056.752.027.256.07.499.128.728.059.23.147.424.264.584h-2.512c-.139-.363-.224-.795-.256-1.296s-.08-.981-.144-1.44c-.085-.597-.267-1.035-.544-1.312-.277-.277-.73-.416-1.36-.416h-2.512V12h-2.512V.576zm14.064 5.376h1.952c.288 0 .565-.021.832-.064s.501-.125.704-.248c.203-.123.365-.296.488-.52.123-.224.184-.517.184-.88s-.061-.656-.184-.88a1.351 1.351 0 0 0-.488-.52 1.936 1.936 0 0 0-.704-.248 5.26 5.26 0 0 0-.832-.064h-1.952v3.424zM860.78.576h5.152c.715 0 1.323.104 1.824.312.501.208.91.483 1.224.824.315.341.544.73.688 1.168a4.345 4.345 0 0 1 0 2.712 3.155 3.155 0 0 1-.688 1.176c-.315.341-.723.616-1.224.824-.501.208-1.11.312-1.824.312h-2.64V12h-2.512V.576zm9.472 14.32a15.012 15.012 0 0 0 1.304-3.512c.283-1.21.424-2.445.424-3.704 0-1.28-.139-2.539-.416-3.776a15.485 15.485 0 0 0-1.296-3.6h1.872a14.82 14.82 0 0 1 1.56 3.488c.368 1.227.552 2.47.552 3.728 0 .597-.043 1.224-.128 1.88a14.538 14.538 0 0 1-.392 1.952 13.55 13.55 0 0 1-.664 1.88 9.587 9.587 0 0 1-.928 1.664h-1.888zM599.924 75h-2.496l-1.936-7.776h-.032L593.556 75h-2.544l-3.024-11.424h2.512l1.808 7.776h.032l1.984-7.776h2.352l1.952 7.872h.032l1.872-7.872h2.464L599.924 75zm9.552-5.024c-.107-.576-.296-1.013-.568-1.312-.272-.299-.685-.448-1.24-.448-.363 0-.664.061-.904.184s-.432.275-.576.456a1.67 1.67 0 0 0-.304.576 2.608 2.608 0 0 0-.104.544h3.696zm-3.696 1.44c.032.736.219 1.27.56 1.6.341.33.832.496 1.472.496.459 0 .853-.115 1.184-.344.33-.23.533-.472.608-.728h2c-.32.992-.81 1.701-1.472 2.128-.661.427-1.461.64-2.4.64-.65 0-1.237-.104-1.76-.312a3.66 3.66 0 0 1-1.328-.888 3.997 3.997 0 0 1-.84-1.376 5.037 5.037 0 0 1-.296-1.76c0-.619.101-1.195.304-1.728.203-.533.49-.995.864-1.384.373-.39.819-.696 1.336-.92a4.284 4.284 0 0 1 1.72-.336c.704 0 1.317.136 1.84.408.523.272.952.637 1.288 1.096.336.459.579.981.728 1.568.15.587.203 1.2.16 1.84h-5.968zm13.376-.544c0-.352-.037-.688-.112-1.008a2.633 2.633 0 0 0-.352-.848c-.16-.245-.36-.44-.6-.584-.24-.144-.53-.216-.872-.216-.33 0-.619.072-.864.216a1.817 1.817 0 0 0-.608.584c-.16.245-.277.528-.352.848-.075.32-.112.656-.112 1.008 0 .341.037.672.112.992.075.32.192.603.352.848.16.245.363.44.608.584.245.144.533.216.864.216.341 0 .632-.072.872-.216.24-.144.44-.339.6-.584.16-.245.277-.528.352-.848.075-.32.112-.65.112-.992zm-6.064-7.296h2.272v4.16h.032a2.424 2.424 0 0 1 1.128-.936 3.819 3.819 0 0 1 1.48-.296 3.15 3.15 0 0 1 2.328 1.04c.325.352.59.803.792 1.352.203.55.304 1.203.304 1.96 0 .757-.101 1.41-.304 1.96-.203.55-.467 1-.792 1.352a3.154 3.154 0 0 1-2.328 1.04c-.608 0-1.152-.096-1.632-.288a2.071 2.071 0 0 1-1.088-.976h-.032V75h-2.16V63.576zm12.896 7.008h2.96l-1.44-4.192h-.032l-1.488 4.192zm.24-7.008h2.576L633.076 75h-2.608l-.864-2.544h-4.272L624.436 75h-2.528l4.32-11.424zM641.588 75h-2.16v-1.152h-.048c-.288.48-.661.827-1.12 1.04-.459.213-.928.32-1.408.32-.608 0-1.107-.08-1.496-.24a2.159 2.159 0 0 1-.92-.68 2.663 2.663 0 0 1-.472-1.072 6.667 6.667 0 0 1-.136-1.4v-5.088h2.272V71.4c0 .683.107 1.192.32 1.528.213.336.592.504 1.136.504.619 0 1.067-.184 1.344-.552.277-.368.416-.973.416-1.816v-4.336h2.272V75zm4.608-8.272h1.664v1.52h-1.664v4.096c0 .384.064.64.192.768s.384.192.768.192c.128 0 .25-.005.368-.016.117-.01.23-.027.336-.048V75a5.406 5.406 0 0 1-.64.064c-.235.01-.464.016-.688.016-.352 0-.685-.024-1-.072a2.358 2.358 0 0 1-.832-.28 1.482 1.482 0 0 1-.568-.592c-.139-.256-.208-.592-.208-1.008v-4.88h-1.376v-1.52h1.376v-2.48h2.272v2.48zm2.752-3.152h2.272v4.304h.048c.288-.48.656-.83 1.104-1.048.448-.219.885-.328 1.312-.328.608 0 1.107.083 1.496.248.39.165.696.395.92.688.224.293.381.65.472 1.072.09.421.136.888.136 1.4V75h-2.272v-4.672c0-.683-.107-1.192-.32-1.528-.213-.336-.592-.504-1.136-.504-.619 0-1.067.184-1.344.552-.277.368-.416.973-.416 1.816V75h-2.272V63.576zm9.488 3.152h2.16v1.152h.048c.288-.48.661-.83 1.12-1.048a3.239 3.239 0 0 1 1.408-.328c.608 0 1.107.083 1.496.248.39.165.696.395.92.688.224.293.381.65.472 1.072.09.421.136.888.136 1.4V75h-2.272v-4.672c0-.683-.107-1.192-.32-1.528-.213-.336-.592-.504-1.136-.504-.619 0-1.067.184-1.344.552-.277.368-.416.973-.416 1.816V75h-2.272v-8.272zM347.356 239.576h2.512V251h-2.512v-11.424zm4.48 3.152h2.16v1.152h.048c.288-.48.661-.83 1.12-1.048a3.239 3.239 0 0 1 1.408-.328c.608 0 1.107.083 1.496.248.39.165.696.395.92.688.224.293.381.65.472 1.072.09.421.136.888.136 1.4V251h-2.272v-4.672c0-.683-.107-1.192-.32-1.528-.213-.336-.592-.504-1.136-.504-.619 0-1.067.184-1.344.552-.277.368-.416.973-.416 1.816V251h-2.272v-8.272zm12.368 0h1.664v1.52h-1.664v4.096c0 .384.064.64.192.768s.384.192.768.192c.128 0 .25-.005.368-.016.117-.01.23-.027.336-.048V251a5.406 5.406 0 0 1-.64.064c-.235.01-.464.016-.688.016-.352 0-.685-.024-1-.072a2.358 2.358 0 0 1-.832-.28 1.482 1.482 0 0 1-.568-.592c-.139-.256-.208-.592-.208-1.008v-4.88h-1.376v-1.52h1.376v-2.48h2.272v2.48zm8.32 3.248c-.107-.576-.296-1.013-.568-1.312-.272-.299-.685-.448-1.24-.448-.363 0-.664.061-.904.184s-.432.275-.576.456a1.67 1.67 0 0 0-.304.576 2.608 2.608 0 0 0-.104.544h3.696zm-3.696 1.44c.032.736.219 1.27.56 1.6.341.33.832.496 1.472.496.459 0 .853-.115 1.184-.344.33-.23.533-.472.608-.728h2c-.32.992-.81 1.701-1.472 2.128-.661.427-1.461.64-2.4.64-.65 0-1.237-.104-1.76-.312a3.66 3.66 0 0 1-1.328-.888 3.997 3.997 0 0 1-.84-1.376 5.037 5.037 0 0 1-.296-1.76c0-.619.101-1.195.304-1.728.203-.533.49-.995.864-1.384.373-.39.819-.696 1.336-.92a4.284 4.284 0 0 1 1.72-.336c.704 0 1.317.136 1.84.408.523.272.952.637 1.288 1.096.336.459.579.981.728 1.568.15.587.203 1.2.16 1.84h-5.968zm7.312-4.688h2.16v1.536h.032a2.83 2.83 0 0 1 1.056-1.272c.235-.155.485-.275.752-.36.267-.085.544-.128.832-.128.15 0 .315.027.496.08v2.112a4.364 4.364 0 0 0-.816-.08c-.416 0-.768.07-1.056.208-.288.139-.52.328-.696.568-.176.24-.301.52-.376.84-.075.32-.112.667-.112 1.04V251h-2.272v-8.272zm6.224 0h2.16v1.152h.048c.288-.48.661-.83 1.12-1.048a3.239 3.239 0 0 1 1.408-.328c.608 0 1.107.083 1.496.248.39.165.696.395.92.688.224.293.381.65.472 1.072.09.421.136.888.136 1.4V251h-2.272v-4.672c0-.683-.107-1.192-.32-1.528-.213-.336-.592-.504-1.136-.504-.619 0-1.067.184-1.344.552-.277.368-.416.973-.416 1.816V251h-2.272v-8.272zm9.392 2.544c.032-.533.165-.976.4-1.328.235-.352.533-.635.896-.848.363-.213.77-.365 1.224-.456.453-.09.91-.136 1.368-.136.416 0 .837.03 1.264.088.427.059.816.173 1.168.344.352.17.64.408.864.712.224.304.336.707.336 1.208v4.304c0 .373.021.73.064 1.072.043.341.117.597.224.768h-2.304a3.26 3.26 0 0 1-.16-.8 2.96 2.96 0 0 1-1.28.784c-.49.15-.992.224-1.504.224-.395 0-.763-.048-1.104-.144a2.528 2.528 0 0 1-.896-.448 2.085 2.085 0 0 1-.6-.768c-.144-.31-.216-.677-.216-1.104 0-.47.083-.856.248-1.16.165-.304.379-.547.64-.728.261-.181.56-.317.896-.408.336-.09.675-.163 1.016-.216.341-.053.677-.096 1.008-.128.33-.032.624-.08.88-.144.256-.064.459-.157.608-.28.15-.123.219-.301.208-.536 0-.245-.04-.44-.12-.584a.882.882 0 0 0-.32-.336 1.259 1.259 0 0 0-.464-.16 3.797 3.797 0 0 0-.568-.04c-.448 0-.8.096-1.056.288-.256.192-.405.512-.448.96h-2.272zm5.248 1.68a1.02 1.02 0 0 1-.36.2 3.677 3.677 0 0 1-.464.12 7.11 7.11 0 0 1-.52.08 9.551 9.551 0 0 0-.544.08c-.17.032-.339.075-.504.128a1.49 1.49 0 0 0-.432.216c-.123.09-.221.205-.296.344a1.107 1.107 0 0 0-.112.528c0 .203.037.373.112.512a.859.859 0 0 0 .304.328c.128.08.277.136.448.168.17.032.347.048.528.048.448 0 .795-.075 1.04-.224.245-.15.427-.328.544-.536.117-.208.19-.419.216-.632.027-.213.04-.384.04-.512v-.848zm4.096-7.376h2.272V251H401.1v-11.424zm11.632 7.008h2.96l-1.44-4.192h-.032l-1.488 4.192zm.24-7.008h2.576L419.82 251h-2.608l-.864-2.544h-4.272L411.18 251h-2.528l4.32-11.424zM428.332 251h-2.16v-1.152h-.048c-.288.48-.661.827-1.12 1.04-.459.213-.928.32-1.408.32-.608 0-1.107-.08-1.496-.24a2.159 2.159 0 0 1-.92-.68 2.663 2.663 0 0 1-.472-1.072 6.667 6.667 0 0 1-.136-1.4v-5.088h2.272v4.672c0 .683.107 1.192.32 1.528.213.336.592.504 1.136.504.619 0 1.067-.184 1.344-.552.277-.368.416-.973.416-1.816v-4.336h2.272V251zm4.608-8.272h1.664v1.52h-1.664v4.096c0 .384.064.64.192.768s.384.192.768.192c.128 0 .25-.005.368-.016.117-.01.23-.027.336-.048V251a5.406 5.406 0 0 1-.64.064c-.235.01-.464.016-.688.016-.352 0-.685-.024-1-.072a2.358 2.358 0 0 1-.832-.28 1.482 1.482 0 0 1-.568-.592c-.139-.256-.208-.592-.208-1.008v-4.88h-1.376v-1.52h1.376v-2.48h2.272v2.48zm2.752-3.152h2.272v4.304h.048c.288-.48.656-.83 1.104-1.048.448-.219.885-.328 1.312-.328.608 0 1.107.083 1.496.248.39.165.696.395.92.688.224.293.381.65.472 1.072.09.421.136.888.136 1.4V251h-2.272v-4.672c0-.683-.107-1.192-.32-1.528-.213-.336-.592-.504-1.136-.504-.619 0-1.067.184-1.344.552-.277.368-.416.973-.416 1.816V251h-2.272v-11.424zm15.056 6.4c-.107-.576-.296-1.013-.568-1.312-.272-.299-.685-.448-1.24-.448-.363 0-.664.061-.904.184s-.432.275-.576.456a1.67 1.67 0 0 0-.304.576 2.608 2.608 0 0 0-.104.544h3.696zm-3.696 1.44c.032.736.219 1.27.56 1.6.341.33.832.496 1.472.496.459 0 .853-.115 1.184-.344.33-.23.533-.472.608-.728h2c-.32.992-.81 1.701-1.472 2.128-.661.427-1.461.64-2.4.64-.65 0-1.237-.104-1.76-.312a3.66 3.66 0 0 1-1.328-.888 3.997 3.997 0 0 1-.84-1.376 5.037 5.037 0 0 1-.296-1.76c0-.619.101-1.195.304-1.728.203-.533.49-.995.864-1.384.373-.39.819-.696 1.336-.92a4.284 4.284 0 0 1 1.72-.336c.704 0 1.317.136 1.84.408.523.272.952.637 1.288 1.096.336.459.579.981.728 1.568.15.587.203 1.2.16 1.84h-5.968zm7.312-4.688h2.16v1.152h.048c.288-.48.661-.83 1.12-1.048a3.239 3.239 0 0 1 1.408-.328c.608 0 1.107.083 1.496.248.39.165.696.395.92.688.224.293.381.65.472 1.072.09.421.136.888.136 1.4V251h-2.272v-4.672c0-.683-.107-1.192-.32-1.528-.213-.336-.592-.504-1.136-.504-.619 0-1.067.184-1.344.552-.277.368-.416.973-.416 1.816V251h-2.272v-8.272zm12.368 0h1.664v1.52h-1.664v4.096c0 .384.064.64.192.768s.384.192.768.192c.128 0 .25-.005.368-.016.117-.01.23-.027.336-.048V251a5.406 5.406 0 0 1-.64.064c-.235.01-.464.016-.688.016-.352 0-.685-.024-1-.072a2.358 2.358 0 0 1-.832-.28 1.482 1.482 0 0 1-.568-.592c-.139-.256-.208-.592-.208-1.008v-4.88h-1.376v-1.52h1.376v-2.48h2.272v2.48zm5.088-1.28h-2.272v-1.872h2.272v1.872zm-2.272 1.28h2.272V251h-2.272v-8.272zm9.696 2.912c-.15-.95-.71-1.424-1.68-1.424-.363 0-.667.083-.912.248a1.97 1.97 0 0 0-.6.64c-.155.261-.264.55-.328.864a4.494 4.494 0 0 0 0 1.848c.064.31.168.59.312.84s.339.456.584.616c.245.16.544.24.896.24.544 0 .963-.152 1.256-.456.293-.304.477-.712.552-1.224h2.192c-.15 1.099-.576 1.936-1.28 2.512-.704.576-1.605.864-2.704.864a4.527 4.527 0 0 1-1.704-.312 3.778 3.778 0 0 1-1.32-.872 3.971 3.971 0 0 1-.848-1.336 4.633 4.633 0 0 1-.304-1.704c0-.64.093-1.235.28-1.784.187-.55.461-1.024.824-1.424.363-.4.805-.712 1.328-.936.523-.224 1.12-.336 1.792-.336.49 0 .963.064 1.416.192a3.78 3.78 0 0 1 1.216.584c.357.261.648.587.872.976.224.39.352.85.384 1.384h-2.224zm3.456-.368c.032-.533.165-.976.4-1.328.235-.352.533-.635.896-.848.363-.213.77-.365 1.224-.456.453-.09.91-.136 1.368-.136.416 0 .837.03 1.264.088.427.059.816.173 1.168.344.352.17.64.408.864.712.224.304.336.707.336 1.208v4.304c0 .373.021.73.064 1.072.043.341.117.597.224.768h-2.304a3.26 3.26 0 0 1-.16-.8 2.96 2.96 0 0 1-1.28.784c-.49.15-.992.224-1.504.224-.395 0-.763-.048-1.104-.144a2.528 2.528 0 0 1-.896-.448 2.085 2.085 0 0 1-.6-.768c-.144-.31-.216-.677-.216-1.104 0-.47.083-.856.248-1.16.165-.304.379-.547.64-.728.261-.181.56-.317.896-.408.336-.09.675-.163 1.016-.216.341-.053.677-.096 1.008-.128.33-.032.624-.08.88-.144.256-.064.459-.157.608-.28.15-.123.219-.301.208-.536 0-.245-.04-.44-.12-.584a.882.882 0 0 0-.32-.336 1.259 1.259 0 0 0-.464-.16 3.797 3.797 0 0 0-.568-.04c-.448 0-.8.096-1.056.288-.256.192-.405.512-.448.96H482.7zm5.248 1.68a1.02 1.02 0 0 1-.36.2 3.677 3.677 0 0 1-.464.12 7.11 7.11 0 0 1-.52.08 9.551 9.551 0 0 0-.544.08c-.17.032-.339.075-.504.128a1.49 1.49 0 0 0-.432.216c-.123.09-.221.205-.296.344a1.107 1.107 0 0 0-.112.528c0 .203.037.373.112.512a.859.859 0 0 0 .304.328c.128.08.277.136.448.168.17.032.347.048.528.048.448 0 .795-.075 1.04-.224.245-.15.427-.328.544-.536.117-.208.19-.419.216-.632.027-.213.04-.384.04-.512v-.848zm6.912-4.224h1.664v1.52h-1.664v4.096c0 .384.064.64.192.768s.384.192.768.192c.128 0 .25-.005.368-.016.117-.01.23-.027.336-.048V251a5.406 5.406 0 0 1-.64.064c-.235.01-.464.016-.688.016-.352 0-.685-.024-1-.072a2.358 2.358 0 0 1-.832-.28 1.482 1.482 0 0 1-.568-.592c-.139-.256-.208-.592-.208-1.008v-4.88h-1.376v-1.52h1.376v-2.48h2.272v2.48zm4.768 4.144c0 .33.032.653.096.968.064.315.173.597.328.848.155.25.36.45.616.6.256.15.576.224.96.224s.707-.075.968-.224c.261-.15.47-.35.624-.6.155-.25.264-.533.328-.848a4.964 4.964 0 0 0 0-1.944 2.49 2.49 0 0 0-.328-.848 1.82 1.82 0 0 0-.624-.6c-.261-.155-.584-.232-.968-.232s-.704.077-.96.232a1.842 1.842 0 0 0-.616.6 2.49 2.49 0 0 0-.328.848c-.064.32-.096.645-.096.976zm-2.272 0c0-.661.101-1.261.304-1.8.203-.539.49-.997.864-1.376a3.872 3.872 0 0 1 1.344-.88c.523-.208 1.11-.312 1.76-.312.65 0 1.24.104 1.768.312.528.208.979.501 1.352.88.373.379.661.837.864 1.376.203.539.304 1.139.304 1.8s-.101 1.259-.304 1.792c-.203.533-.49.99-.864 1.368-.373.379-.824.67-1.352.872a4.9 4.9 0 0 1-1.768.304c-.65 0-1.237-.101-1.76-.304a3.78 3.78 0 0 1-1.344-.872 3.887 3.887 0 0 1-.864-1.368c-.203-.533-.304-1.13-.304-1.792zm10.032-4.144h2.16v1.536h.032a2.83 2.83 0 0 1 1.056-1.272c.235-.155.485-.275.752-.36.267-.085.544-.128.832-.128.15 0 .315.027.496.08v2.112a4.364 4.364 0 0 0-.816-.08c-.416 0-.768.07-1.056.208-.288.139-.52.328-.696.568-.176.24-.301.52-.376.84-.075.32-.112.667-.112 1.04V251h-2.272v-8.272z"/>
        <g transform="translate(367 49)">
            <mask id="f" fill="#fff">
                <use xlink:href="#e"/>
            </mask>
            <path fill="#325F74" d="M63.145.013c17.893 0 35.786-.002 53.679.002 6.704.001 9.167 1.504 9.17 5.573.002 5.17.016 10.341-.008 15.512-.012 2.963-2.537 4.606-7.405 4.87-.621.034-1.252.03-1.877.03-35.875 0-71.75.002-107.625-.009-1.24 0-2.513-.06-3.717-.23-3.252-.457-5.3-1.934-5.319-3.923A919.752 919.752 0 0 1 .041 4.226C.067 1.745 2.926.094 7.321.037 12.596-.03 17.876.015 23.154.014h39.99" mask="url(#f)"/>
        </g>
        <g transform="translate(367 79)">
            <mask id="h" fill="#fff">
                <use xlink:href="#g"/>
            </mask>
            <path fill="#325F74" d="M63.145.013c17.893 0 35.786-.002 53.679.002 6.704.001 9.167 1.504 9.17 5.573.002 5.17.016 10.341-.008 15.512-.012 2.963-2.537 4.606-7.405 4.87-.621.034-1.252.03-1.877.03-35.875 0-71.75.002-107.625-.009-1.24 0-2.513-.06-3.717-.23-3.252-.457-5.3-1.934-5.319-3.923A919.752 919.752 0 0 1 .041 4.226C.067 1.745 2.926.094 7.321.037 12.596-.03 17.876.015 23.154.014h39.99" mask="url(#h)"/>
        </g>
        <g transform="translate(367 109)">
            <mask id="j" fill="#fff">
                <use xlink:href="#i"/>
            </mask>
            <path fill="#325F74" d="M63.145.013c17.893 0 35.786-.002 53.679.002 6.704.001 9.167 1.504 9.17 5.573.002 5.17.016 10.341-.008 15.512-.012 2.963-2.537 4.606-7.405 4.87-.621.034-1.252.03-1.877.03-35.875 0-71.75.002-107.625-.009-1.24 0-2.513-.06-3.717-.23-3.252-.457-5.3-1.934-5.319-3.923A919.752 919.752 0 0 1 .041 4.226C.067 1.745 2.926.094 7.321.037 12.596-.03 17.876.015 23.154.014h39.99" mask="url(#j)"/>
        </g>
        <path fill="#FFF" fill-rule="nonzero" d="M392.564 63.28h3.872l-1.904-5.328h-.032l-1.936 5.328zm1.136-6.704h1.68L399.844 68h-1.68l-1.248-3.44h-4.832l-1.28 3.44h-1.552l4.448-11.424zm7.088 3.152h1.36v1.12h.032a2.036 2.036 0 0 1 1.056-1 3.942 3.942 0 0 1 1.584-.312c.64 0 1.197.117 1.672.352a3.4 3.4 0 0 1 1.184.952c.315.4.552.861.712 1.384.16.523.24 1.077.24 1.664s-.077 1.141-.232 1.664c-.155.523-.39.979-.704 1.368-.315.39-.71.696-1.184.92-.475.224-1.027.336-1.656.336a4.088 4.088 0 0 1-1.424-.272 2.907 2.907 0 0 1-.696-.392 2.19 2.19 0 0 1-.552-.616h-.032v4.256h-1.36V59.728zm6.4 4.064c0-.384-.05-.76-.152-1.128a3.044 3.044 0 0 0-.464-.984 2.274 2.274 0 0 0-.8-.688c-.325-.17-.707-.256-1.144-.256-.459 0-.848.09-1.168.272a2.34 2.34 0 0 0-.784.712c-.203.293-.35.627-.44 1-.09.373-.136.752-.136 1.136 0 .405.048.797.144 1.176.096.379.248.712.456 1 .208.288.477.52.808.696.33.176.73.264 1.2.264s.861-.09 1.176-.272c.315-.181.568-.421.76-.72.192-.299.33-.64.416-1.024.085-.384.128-.779.128-1.184zm3.088-4.064h1.36v1.12h.032a2.036 2.036 0 0 1 1.056-1 3.942 3.942 0 0 1 1.584-.312c.64 0 1.197.117 1.672.352a3.4 3.4 0 0 1 1.184.952c.315.4.552.861.712 1.384.16.523.24 1.077.24 1.664s-.077 1.141-.232 1.664c-.155.523-.39.979-.704 1.368-.315.39-.71.696-1.184.92-.475.224-1.027.336-1.656.336a4.088 4.088 0 0 1-1.424-.272 2.907 2.907 0 0 1-.696-.392 2.19 2.19 0 0 1-.552-.616h-.032v4.256h-1.36V59.728zm6.4 4.064c0-.384-.05-.76-.152-1.128a3.044 3.044 0 0 0-.464-.984 2.274 2.274 0 0 0-.8-.688c-.325-.17-.707-.256-1.144-.256-.459 0-.848.09-1.168.272a2.34 2.34 0 0 0-.784.712c-.203.293-.35.627-.44 1-.09.373-.136.752-.136 1.136 0 .405.048.797.144 1.176.096.379.248.712.456 1 .208.288.477.52.808.696.33.176.73.264 1.2.264s.861-.09 1.176-.272c.315-.181.568-.421.76-.72.192-.299.33-.64.416-1.024.085-.384.128-.779.128-1.184zm3.12-7.216h1.36V68h-1.36V56.576zm4.912 1.664h-1.36v-1.664h1.36v1.664zm-1.36 1.488h1.36V68h-1.36v-8.272zm9.088 2.656c-.107-.523-.33-.928-.672-1.216-.341-.288-.8-.432-1.376-.432-.49 0-.901.09-1.232.272-.33.181-.595.421-.792.72a3.03 3.03 0 0 0-.424 1.032c-.085.39-.128.792-.128 1.208 0 .384.045.757.136 1.12.09.363.232.685.424.968.192.283.443.51.752.68.31.17.677.256 1.104.256.672 0 1.197-.176 1.576-.528.379-.352.61-.848.696-1.488h1.392c-.15 1.024-.53 1.813-1.144 2.368-.613.555-1.448.832-2.504.832-.63 0-1.187-.101-1.672-.304a3.243 3.243 0 0 1-1.216-.864 3.737 3.737 0 0 1-.736-1.336 5.574 5.574 0 0 1-.248-1.704c0-.619.08-1.197.24-1.736.16-.539.403-1.008.728-1.408.325-.4.733-.715 1.224-.944.49-.23 1.061-.344 1.712-.344a5 5 0 0 1 1.32.168c.41.112.773.285 1.088.52.315.235.573.53.776.888.203.357.33.781.384 1.272h-1.408zm10.304 5.584c-.235.139-.56.208-.976.208-.352 0-.632-.099-.84-.296-.208-.197-.312-.52-.312-.968-.373.448-.808.77-1.304.968a4.31 4.31 0 0 1-1.608.296c-.373 0-.728-.043-1.064-.128a2.474 2.474 0 0 1-.872-.4 1.92 1.92 0 0 1-.584-.712c-.144-.293-.216-.648-.216-1.064 0-.47.08-.853.24-1.152.16-.299.37-.541.632-.728.261-.187.56-.328.896-.424.336-.096.68-.176 1.032-.24.373-.075.728-.13 1.064-.168.336-.037.632-.09.888-.16s.459-.17.608-.304c.15-.133.224-.328.224-.584 0-.299-.056-.539-.168-.72a1.152 1.152 0 0 0-.432-.416 1.757 1.757 0 0 0-.592-.192 4.47 4.47 0 0 0-.648-.048c-.576 0-1.056.11-1.44.328-.384.219-.592.632-.624 1.24h-1.36c.021-.512.128-.944.32-1.296.192-.352.448-.637.768-.856.32-.219.685-.376 1.096-.472.41-.096.85-.144 1.32-.144.373 0 .744.027 1.112.08.368.053.701.163 1 .328.299.165.539.397.72.696.181.299.272.688.272 1.168v4.256c0 .32.019.555.056.704.037.15.163.224.376.224.117 0 .256-.027.416-.08v1.056zm-2.208-4.24c-.17.128-.395.221-.672.28-.277.059-.568.107-.872.144-.304.037-.61.08-.92.128-.31.048-.587.125-.832.232a1.513 1.513 0 0 0-.6.456c-.155.197-.232.467-.232.808 0 .224.045.413.136.568.09.155.208.28.352.376.144.096.312.165.504.208.192.043.395.064.608.064.448 0 .832-.061 1.152-.184.32-.123.581-.277.784-.464a1.83 1.83 0 0 0 .448-.608c.096-.219.144-.424.144-.616v-1.392zm5.36-4h1.648v1.2h-1.648v5.136c0 .16.013.288.04.384.027.096.077.17.152.224a.672.672 0 0 0 .312.104c.133.016.307.024.52.024h.624V68h-1.04c-.352 0-.653-.024-.904-.072a1.328 1.328 0 0 1-.608-.264 1.128 1.128 0 0 1-.344-.544c-.075-.235-.112-.544-.112-.928v-5.264h-1.408v-1.2h1.408v-2.48h1.36v2.48zm4.592-1.488h-1.36v-1.664h1.36v1.664zm-1.36 1.488h1.36V68h-1.36v-8.272zm4.464 4.144c0 .501.067.947.2 1.336.133.39.317.715.552.976.235.261.51.461.824.6.315.139.648.208 1 .208s.685-.07 1-.208c.315-.139.59-.339.824-.6.235-.261.419-.587.552-.976.133-.39.2-.835.2-1.336 0-.501-.067-.947-.2-1.336a2.883 2.883 0 0 0-.552-.984 2.35 2.35 0 0 0-.824-.608 2.452 2.452 0 0 0-1-.208c-.352 0-.685.07-1 .208a2.35 2.35 0 0 0-.824.608 2.883 2.883 0 0 0-.552.984c-.133.39-.2.835-.2 1.336zm-1.44 0c0-.608.085-1.176.256-1.704a3.86 3.86 0 0 1 .768-1.376c.341-.39.763-.696 1.264-.92.501-.224 1.077-.336 1.728-.336.661 0 1.24.112 1.736.336.496.224.915.53 1.256.92.341.39.597.848.768 1.376a5.51 5.51 0 0 1 .256 1.704c0 .608-.085 1.173-.256 1.696-.17.523-.427.979-.768 1.368a3.55 3.55 0 0 1-1.256.912c-.496.219-1.075.328-1.736.328-.65 0-1.227-.11-1.728-.328a3.533 3.533 0 0 1-1.264-.912 3.871 3.871 0 0 1-.768-1.368 5.434 5.434 0 0 1-.256-1.696zm9.632-4.144h1.28v1.312h.032c.565-1.003 1.461-1.504 2.688-1.504.544 0 .997.075 1.36.224.363.15.656.357.88.624.224.267.381.584.472.952.09.368.136.776.136 1.224V68h-1.36v-5.6c0-.512-.15-.917-.448-1.216-.299-.299-.71-.448-1.232-.448-.416 0-.776.064-1.08.192-.304.128-.557.31-.76.544-.203.235-.355.51-.456.824a3.35 3.35 0 0 0-.152 1.032V68h-1.36v-8.272zM402.508 91.488h3.04c.864 0 1.485-.152 1.864-.456.379-.304.568-.76.568-1.368 0-.405-.064-.725-.192-.96a1.365 1.365 0 0 0-.528-.544 2.076 2.076 0 0 0-.776-.248 7.422 7.422 0 0 0-.936-.056h-3.04v3.632zm-1.52-4.912h4.144c.245 0 .51.003.792.008.283.005.563.021.84.048s.536.067.776.12c.24.053.445.133.616.24.373.224.69.533.952.928.261.395.392.88.392 1.456 0 .608-.147 1.133-.44 1.576-.293.443-.712.77-1.256.984v.032c.704.15 1.243.47 1.616.96s.56 1.088.56 1.792c0 .416-.075.821-.224 1.216-.15.395-.37.744-.664 1.048-.293.304-.656.55-1.088.736-.432.187-.93.28-1.496.28h-5.52V86.576zm1.52 10.144h3.808c.672 0 1.197-.181 1.576-.544.379-.363.568-.864.568-1.504 0-.373-.07-.683-.208-.928a1.614 1.614 0 0 0-.552-.584 2.313 2.313 0 0 0-.792-.304 4.804 4.804 0 0 0-.928-.088h-3.472v3.952zm9.168-6.992h1.28v1.744h.032c.33-.672.736-1.168 1.216-1.488.48-.32 1.088-.47 1.824-.448v1.44c-.544 0-1.008.075-1.392.224-.384.15-.693.368-.928.656a2.714 2.714 0 0 0-.512 1.048c-.107.41-.16.883-.16 1.416V98h-1.36v-8.272zm6.368 4.144c0 .501.067.947.2 1.336.133.39.317.715.552.976.235.261.51.461.824.6.315.139.648.208 1 .208s.685-.07 1-.208c.315-.139.59-.339.824-.6.235-.261.419-.587.552-.976.133-.39.2-.835.2-1.336 0-.501-.067-.947-.2-1.336a2.883 2.883 0 0 0-.552-.984 2.35 2.35 0 0 0-.824-.608 2.452 2.452 0 0 0-1-.208c-.352 0-.685.07-1 .208a2.35 2.35 0 0 0-.824.608 2.883 2.883 0 0 0-.552.984c-.133.39-.2.835-.2 1.336zm-1.44 0c0-.608.085-1.176.256-1.704a3.86 3.86 0 0 1 .768-1.376c.341-.39.763-.696 1.264-.92.501-.224 1.077-.336 1.728-.336.661 0 1.24.112 1.736.336.496.224.915.53 1.256.92.341.39.597.848.768 1.376a5.51 5.51 0 0 1 .256 1.704c0 .608-.085 1.173-.256 1.696-.17.523-.427.979-.768 1.368a3.55 3.55 0 0 1-1.256.912c-.496.219-1.075.328-1.736.328-.65 0-1.227-.11-1.728-.328a3.533 3.533 0 0 1-1.264-.912 3.871 3.871 0 0 1-.768-1.368 5.434 5.434 0 0 1-.256-1.696zM434.428 98h-1.44l-1.68-6.576h-.032L429.612 98h-1.472l-2.656-8.272h1.504l1.872 6.768h.032l1.664-6.768h1.488l1.728 6.768h.032l1.856-6.768h1.408L434.428 98zm4.768-2.608c.01.299.08.552.208.76.128.208.296.373.504.496.208.123.443.21.704.264.261.053.53.08.808.08.213 0 .437-.016.672-.048.235-.032.45-.09.648-.176.197-.085.36-.21.488-.376.128-.165.192-.376.192-.632 0-.352-.133-.619-.4-.8a3.404 3.404 0 0 0-1-.44c-.4-.112-.835-.213-1.304-.304a6.766 6.766 0 0 1-1.304-.384 2.7 2.7 0 0 1-1-.696c-.267-.299-.4-.715-.4-1.248 0-.416.093-.773.28-1.072a2.29 2.29 0 0 1 .72-.728c.293-.187.624-.325.992-.416.368-.09.733-.136 1.096-.136.47 0 .901.04 1.296.12.395.08.744.219 1.048.416.304.197.547.464.728.8.181.336.288.755.32 1.256h-1.36a1.377 1.377 0 0 0-.208-.664 1.362 1.362 0 0 0-.448-.424 2.035 2.035 0 0 0-.6-.232 3.088 3.088 0 0 0-.664-.072c-.203 0-.408.016-.616.048a2.075 2.075 0 0 0-.568.168c-.17.08-.31.187-.416.32a.807.807 0 0 0-.16.52c0 .235.083.43.248.584.165.155.376.283.632.384.256.101.544.187.864.256.32.07.64.141.96.216.341.075.675.165 1 .272.325.107.613.248.864.424.25.176.453.397.608.664.155.267.232.597.232.992 0 .501-.104.917-.312 1.248-.208.33-.48.597-.816.8a3.41 3.41 0 0 1-1.136.424c-.421.08-.84.12-1.256.12-.459 0-.896-.048-1.312-.144a3.219 3.219 0 0 1-1.104-.472 2.407 2.407 0 0 1-.768-.864c-.192-.357-.299-.792-.32-1.304h1.36zm12.912-2.32a2.783 2.783 0 0 0-.216-.912 2.331 2.331 0 0 0-.496-.744 2.327 2.327 0 0 0-1.672-.68c-.352 0-.67.061-.952.184-.283.123-.525.29-.728.504a2.411 2.411 0 0 0-.48.744 2.833 2.833 0 0 0-.208.904h4.752zm1.312 2.304c-.181.928-.581 1.627-1.2 2.096-.619.47-1.397.704-2.336.704-.661 0-1.235-.107-1.72-.32a3.39 3.39 0 0 1-1.224-.896 3.806 3.806 0 0 1-.744-1.376 6.63 6.63 0 0 1-.28-1.744c0-.63.096-1.205.288-1.728a4.13 4.13 0 0 1 .808-1.36 3.666 3.666 0 0 1 1.232-.896c.475-.213.995-.32 1.56-.32.736 0 1.347.152 1.832.456.485.304.875.69 1.168 1.16.293.47.496.981.608 1.536.112.555.157 1.083.136 1.584h-6.192c-.01.363.032.707.128 1.032.096.325.25.613.464.864.213.25.485.45.816.6.33.15.72.224 1.168.224.576 0 1.048-.133 1.416-.4.368-.267.61-.672.728-1.216h1.344zm1.488-5.648h1.28v1.744h.032c.33-.672.736-1.168 1.216-1.488.48-.32 1.088-.47 1.824-.448v1.44c-.544 0-1.008.075-1.392.224-.384.15-.693.368-.928.656a2.714 2.714 0 0 0-.512 1.048c-.107.41-.16.883-.16 1.416V98h-1.36v-8.272zM402.044 121.048h2.976c.864.01 1.496-.165 1.896-.528.4-.363.6-.885.6-1.568s-.2-1.203-.6-1.56c-.4-.357-1.032-.536-1.896-.536h-2.976v4.192zm-1.52-5.472h5.008c1.152 0 2.024.296 2.616.888.592.592.888 1.421.888 2.488s-.296 1.899-.888 2.496c-.592.597-1.464.89-2.616.88h-3.488V127h-1.52v-11.424zm10.224 0h1.36V127h-1.36v-11.424zm10.8 11.392c-.235.139-.56.208-.976.208-.352 0-.632-.099-.84-.296-.208-.197-.312-.52-.312-.968-.373.448-.808.77-1.304.968a4.31 4.31 0 0 1-1.608.296c-.373 0-.728-.043-1.064-.128a2.474 2.474 0 0 1-.872-.4 1.92 1.92 0 0 1-.584-.712c-.144-.293-.216-.648-.216-1.064 0-.47.08-.853.24-1.152.16-.299.37-.541.632-.728.261-.187.56-.328.896-.424.336-.096.68-.176 1.032-.24.373-.075.728-.13 1.064-.168.336-.037.632-.09.888-.16s.459-.17.608-.304c.15-.133.224-.328.224-.584 0-.299-.056-.539-.168-.72a1.152 1.152 0 0 0-.432-.416 1.757 1.757 0 0 0-.592-.192 4.47 4.47 0 0 0-.648-.048c-.576 0-1.056.11-1.44.328-.384.219-.592.632-.624 1.24h-1.36c.021-.512.128-.944.32-1.296.192-.352.448-.637.768-.856.32-.219.685-.376 1.096-.472.41-.096.85-.144 1.32-.144.373 0 .744.027 1.112.08.368.053.701.163 1 .328.299.165.539.397.72.696.181.299.272.688.272 1.168v4.256c0 .32.019.555.056.704.037.15.163.224.376.224.117 0 .256-.027.416-.08v1.056zm-2.208-4.24c-.17.128-.395.221-.672.28-.277.059-.568.107-.872.144-.304.037-.61.08-.92.128-.31.048-.587.125-.832.232a1.513 1.513 0 0 0-.6.456c-.155.197-.232.467-.232.808 0 .224.045.413.136.568.09.155.208.28.352.376.144.096.312.165.504.208.192.043.395.064.608.064.448 0 .832-.061 1.152-.184.32-.123.581-.277.784-.464a1.83 1.83 0 0 0 .448-.608c.096-.219.144-.424.144-.616v-1.392zm5.36-4h1.648v1.2H424.7v5.136c0 .16.013.288.04.384.027.096.077.17.152.224a.672.672 0 0 0 .312.104c.133.016.307.024.52.024h.624v1.2h-1.04c-.352 0-.653-.024-.904-.072a1.328 1.328 0 0 1-.608-.264 1.128 1.128 0 0 1-.344-.544c-.075-.235-.112-.544-.112-.928v-5.264h-1.408v-1.2h1.408v-2.48h1.36v2.48zm3.712 1.2h-1.392v-1.2h1.392v-1.232c0-.672.195-1.181.584-1.528.39-.347.957-.52 1.704-.52.128 0 .275.01.44.032.165.021.312.053.44.096v1.184a1.686 1.686 0 0 0-.384-.088 3.367 3.367 0 0 0-.384-.024c-.33 0-.587.064-.768.192-.181.128-.272.373-.272.736v1.152h1.6v1.2h-1.6V127h-1.36v-7.072zm5.168 2.944c0 .501.067.947.2 1.336.133.39.317.715.552.976.235.261.51.461.824.6.315.139.648.208 1 .208s.685-.07 1-.208c.315-.139.59-.339.824-.6.235-.261.419-.587.552-.976.133-.39.2-.835.2-1.336 0-.501-.067-.947-.2-1.336a2.883 2.883 0 0 0-.552-.984 2.35 2.35 0 0 0-.824-.608 2.452 2.452 0 0 0-1-.208c-.352 0-.685.07-1 .208a2.35 2.35 0 0 0-.824.608 2.883 2.883 0 0 0-.552.984c-.133.39-.2.835-.2 1.336zm-1.44 0c0-.608.085-1.176.256-1.704a3.86 3.86 0 0 1 .768-1.376c.341-.39.763-.696 1.264-.92.501-.224 1.077-.336 1.728-.336.661 0 1.24.112 1.736.336.496.224.915.53 1.256.92.341.39.597.848.768 1.376a5.51 5.51 0 0 1 .256 1.704c0 .608-.085 1.173-.256 1.696-.17.523-.427.979-.768 1.368a3.55 3.55 0 0 1-1.256.912c-.496.219-1.075.328-1.736.328-.65 0-1.227-.11-1.728-.328a3.533 3.533 0 0 1-1.264-.912 3.871 3.871 0 0 1-.768-1.368 5.434 5.434 0 0 1-.256-1.696zm9.584-4.144h1.28v1.744h.032c.33-.672.736-1.168 1.216-1.488.48-.32 1.088-.47 1.824-.448v1.44c-.544 0-1.008.075-1.392.224-.384.15-.693.368-.928.656a2.714 2.714 0 0 0-.512 1.048c-.107.41-.16.883-.16 1.416V127h-1.36v-8.272zm5.376 0h1.28v1.216h.032c.619-.939 1.51-1.408 2.672-1.408.512 0 .976.107 1.392.32.416.213.71.576.88 1.088a2.888 2.888 0 0 1 1.096-1.04 3.092 3.092 0 0 1 1.496-.368c.416 0 .792.045 1.128.136.336.09.624.232.864.424.24.192.427.44.56.744.133.304.2.67.2 1.096V127h-1.36v-5.424c0-.256-.021-.496-.064-.72a1.47 1.47 0 0 0-.24-.584 1.198 1.198 0 0 0-.488-.392c-.208-.096-.477-.144-.808-.144-.672 0-1.2.192-1.584.576-.384.384-.576.896-.576 1.536V127h-1.36v-5.424c0-.267-.024-.512-.072-.736a1.562 1.562 0 0 0-.248-.584 1.158 1.158 0 0 0-.472-.384c-.197-.09-.45-.136-.76-.136-.395 0-.733.08-1.016.24a2.303 2.303 0 0 0-1.072 1.272c-.08.24-.12.44-.12.6V127h-1.36v-8.272z"/>
        <g transform="translate(570 106)">
            <mask id="l" fill="#fff">
                <use xlink:href="#k"/>
            </mask>
            <path fill="#325F74" d="M104.951 5.663L95.525.348C93.74-.66 91.534.64 91.553 2.687l.05 5.261h-67.58l-.05-5.261c-.02-2.046-2.25-3.304-4.015-2.264l-9.324 5.492-9.324 5.491c-1.766 1.04-1.741 3.597.043 4.604l9.427 5.315 9.426 5.315c1.785 1.007 3.991-.293 3.971-2.34l-.049-5.26h67.58l.05 5.26c.02 2.047 2.25 3.304 4.015 2.265l9.324-5.492 9.324-5.492c1.765-1.04 1.741-3.597-.043-4.603l-9.427-5.315z" mask="url(#l)"/>
        </g>
        <g transform="translate(175 106)">
            <mask id="n" fill="#fff">
                <use xlink:href="#m"/>
            </mask>
            <path fill="#325F74" d="M104.951 5.663L95.525.348C93.74-.66 91.534.64 91.553 2.687l.05 5.261h-67.58l-.05-5.261c-.02-2.046-2.25-3.304-4.015-2.264l-9.324 5.492-9.324 5.491c-1.766 1.04-1.741 3.597.043 4.604l9.427 5.315 9.426 5.315c1.785 1.007 3.991-.293 3.971-2.34l-.049-5.26h67.58l.05 5.26c.02 2.047 2.25 3.304 4.015 2.265l9.324-5.492 9.324-5.492c1.765-1.04 1.741-3.597-.043-4.603l-9.427-5.315z" mask="url(#n)"/>
        </g>
        <g>
            <path fill="#325F74" d="M807.028 36.023c18.143 0 36.286-.004 54.43.003 6.797.003 9.295 2.532 9.297 9.385.002 8.708.017 17.417-.007 26.126-.014 4.989-2.573 7.757-7.509 8.203-.63.056-1.269.048-1.903.048-36.377.002-72.753.006-109.13-.014-1.259-.001-2.548-.1-3.769-.386-3.298-.771-5.374-3.258-5.393-6.608a2550.44 2550.44 0 0 1-.002-29.663c.026-4.178 2.924-6.96 7.381-7.054 5.35-.113 10.704-.038 16.056-.04h40.55"/>
            <g transform="translate(743 145.752)">
                <mask id="p" fill="#fff">
                    <use xlink:href="#o"/>
                </mask>
                <path fill="#325F74" d="M63.76.237c18.232 0 36.464-.004 54.696.003 6.815.003 9.297 2.513 9.299 9.376.004 8.707.017 17.415-.007 26.123-.013 4.998-2.55 7.752-7.505 8.2-.9.083-1.812.056-2.718.056-35.74.003-71.477.002-107.215.006-1.634 0-3.261-.01-4.865-.404-3.12-.764-5.35-3.162-5.376-6.35A1682.73 1682.73 0 0 1 .072 6.77C.106 3.303 2.926.672 6.619.315c1.439-.14 2.899-.076 4.35-.076C28.566.235 46.163.237 63.759.237" mask="url(#p)"/>
            </g>
            <path fill="#325F74" d="M806.738 134.711c-17.685 0-35.37.008-53.056-.014-1.534-.002-3.086-.092-4.599-.332-3.747-.594-6.018-3.118-6.039-6.87-.056-9.886-.063-19.77.006-29.656.026-3.719 2.742-6.464 6.464-6.797 1.08-.097 2.175-.06 3.263-.06 36.095-.002 72.191-.002 108.287 0 7.374 0 9.69 2.345 9.691 9.79.002 8.525.014 17.05-.006 25.576-.01 5.04-2.198 7.551-7.156 8.2-1.252.164-2.532.156-3.8.157-17.685.01-35.37.006-53.055.006"/>
            <path fill="#FFF" d="M826.003 61.433c6.89 0 13.78.019 20.668-.01 3.223-.011 3.653-.55 3.651-4.214-.002-3.67-.418-4.206-3.662-4.212-13.688-.023-27.376-.022-41.065 0-3.264.006-3.64.498-3.64 4.206 0 3.678.421 4.208 3.652 4.22 6.798.03 13.597.01 20.396.01M761.894 62.642c3.254.054 5.91-2.301 6.017-5.335.111-3.16-2.556-5.884-5.78-5.905-3.192-.021-5.695 2.372-5.793 5.537-.098 3.183 2.304 5.649 5.556 5.703M789.294 57.233c.036-3.256-2.34-5.771-5.509-5.827-3.31-.06-5.679 2.202-5.776 5.518-.1 3.38 2.083 5.653 5.49 5.714 3.47.064 5.758-2.07 5.795-5.405M826.322 162.95c-6.975 0-13.95-.02-20.924.01-3.132.012-3.412.363-3.442 3.738-.036 4.017.385 4.673 3.493 4.681 13.859.037 27.718.036 41.577.003 2.93-.007 3.325-.644 3.297-4.564-.024-3.448-.316-3.84-3.35-3.855-6.883-.035-13.767-.01-20.651-.013M761.901 172.6c3.248.05 5.897-2.313 6.01-5.361.115-3.157-2.559-5.866-5.796-5.87-3.222-.005-5.737 2.4-5.786 5.534-.05 3.232 2.311 5.646 5.572 5.697M783.617 161.37c-3.303.015-5.59 2.336-5.61 5.694-.02 3.352 2.235 5.551 5.68 5.537 3.427-.012 5.657-2.242 5.61-5.607-.048-3.34-2.369-5.639-5.68-5.624M826.244 107.92c-6.88 0-13.763-.02-20.645.008-3.37.013-3.62.314-3.644 3.818-.026 3.941.43 4.622 3.558 4.63 13.763.034 27.526.034 41.29 0 3.044-.009 3.527-.703 3.52-4.396-.006-3.64-.29-4.03-3.434-4.047-6.882-.036-13.763-.01-20.645-.013M762.155 106.418a5.723 5.723 0 0 0-5.82 5.59c-.094 3.224 2.57 5.926 5.813 5.891 2.979-.03 5.798-2.852 5.765-5.77-.034-3.096-2.638-5.678-5.758-5.71M778.007 112.004c-.074 3.19 2.281 5.752 5.438 5.92 3.04.16 5.75-2.395 5.848-5.506.105-3.344-2.332-5.973-5.569-6.007-3.148-.034-5.643 2.407-5.717 5.593"/>
        </g>
    </g>
</svg>
